<svg width="230" height="23" viewBox="0 0 230 23" fill="none" xmlns="http://www.w3.org/2000/svg">
<path d="M222.291 21.8714C220.792 21.8714 219.502 21.5662 218.42 20.956C217.339 20.3457 216.507 19.4782 215.923 18.3536C215.339 17.2202 215.047 15.882 215.047 14.3388C215.047 12.8393 215.334 11.5229 215.91 10.3895C216.494 9.25613 217.313 8.37124 218.368 7.73481C219.423 7.09838 220.665 6.78016 222.095 6.78016C223.385 6.78016 224.549 7.05479 225.587 7.60403C226.633 8.15328 227.461 8.97715 228.072 10.0756C228.69 11.1741 229 12.5516 229 14.2081V15.3066H219.035C219.079 16.4138 219.401 17.2812 220.003 17.9089C220.604 18.5367 221.389 18.8505 222.357 18.8505C223.028 18.8505 223.603 18.7067 224.083 18.419C224.571 18.1313 224.92 17.7128 225.129 17.1635L228.869 17.412C228.582 18.7546 227.862 19.8357 226.711 20.6552C225.569 21.466 224.096 21.8714 222.291 21.8714ZM219.061 12.8088H225.116C225.02 11.8847 224.724 11.1523 224.227 10.6118C223.73 10.0713 223.032 9.80102 222.134 9.80102C221.228 9.80102 220.508 10.0844 219.977 10.651C219.454 11.209 219.148 11.9283 219.061 12.8088Z" fill="black"/>
<path d="M206.481 21.8714C204.981 21.8714 203.695 21.5531 202.623 20.9167C201.551 20.2803 200.727 19.3954 200.151 18.262C199.585 17.1287 199.301 15.8209 199.301 14.3388C199.301 12.8393 199.589 11.5229 200.165 10.3895C200.749 9.25613 201.577 8.37124 202.649 7.73481C203.722 7.09838 204.994 6.78016 206.468 6.78016C207.741 6.78016 208.857 7.0112 209.816 7.47326C210.775 7.93533 211.533 8.58483 212.091 9.42178C212.649 10.2587 212.954 11.2439 213.006 12.3772H209.188C209.075 11.6536 208.791 11.0695 208.338 10.6249C207.885 10.1715 207.283 9.94487 206.533 9.94487C205.592 9.94487 204.838 10.3241 204.271 11.0826C203.704 11.8324 203.421 12.9003 203.421 14.2865C203.421 15.6814 203.7 16.7669 204.258 17.5428C204.824 18.3187 205.583 18.7067 206.533 18.7067C207.231 18.7067 207.819 18.4887 208.299 18.0528C208.778 17.6169 209.075 17.0066 209.188 16.222H213.006C212.945 17.3379 212.645 18.3231 212.104 19.1774C211.564 20.0231 210.814 20.6857 209.855 21.1652C208.905 21.636 207.78 21.8714 206.481 21.8714Z" fill="black"/>
<path d="M187.231 13.1357V21.5837H183.177V6.96325H187.166V9.56563H187.31C187.641 8.71125 188.168 8.03558 188.892 7.53865C189.616 7.03299 190.518 6.78016 191.599 6.78016C193.125 6.78016 194.345 7.27274 195.261 8.2579C196.185 9.23434 196.647 10.5769 196.647 12.2857V21.5837H192.593V13.005C192.593 12.107 192.362 11.4052 191.9 10.8995C191.446 10.3939 190.814 10.141 190.004 10.141C189.184 10.141 188.517 10.4069 188.003 10.9387C187.488 11.4618 187.231 12.1942 187.231 13.1357Z" fill="black"/>
<path d="M171.708 21.8583C170.313 21.8583 169.154 21.4965 168.23 20.7729C167.314 20.0405 166.857 18.9508 166.857 17.5035C166.857 16.4138 167.11 15.5594 167.615 14.9404C168.13 14.3127 168.805 13.855 169.642 13.5673C170.479 13.2709 171.377 13.0791 172.336 12.9919C173.609 12.8698 174.516 12.7434 175.056 12.6126C175.605 12.4731 175.88 12.168 175.88 11.6972V11.6318C175.88 11.0303 175.688 10.5639 175.305 10.2326C174.921 9.90128 174.367 9.73563 173.644 9.73563C172.92 9.73563 172.327 9.89256 171.865 10.2064C171.412 10.5203 171.111 10.9213 170.963 11.4095L167.275 10.821C167.624 9.54819 168.356 8.55868 169.472 7.8525C170.597 7.13761 171.992 6.78016 173.657 6.78016C174.738 6.78016 175.754 6.95017 176.704 7.29018C177.663 7.63019 178.439 8.16636 179.032 8.89869C179.624 9.6223 179.921 10.5639 179.921 11.7234V21.5837H176.089V19.5436H175.972C175.614 20.2323 175.082 20.7903 174.376 21.2175C173.679 21.6447 172.789 21.8583 171.708 21.8583ZM170.714 17.3728C170.714 17.9307 170.915 18.3536 171.316 18.6413C171.726 18.9203 172.24 19.0597 172.859 19.0597C173.748 19.0597 174.476 18.8026 175.043 18.2882C175.618 17.7738 175.906 17.133 175.906 16.3658V14.8096C175.749 14.9142 175.501 15.0101 175.161 15.0973C174.829 15.1845 174.476 15.2586 174.102 15.3196C173.727 15.3719 173.391 15.4199 173.095 15.4635C172.38 15.5681 171.804 15.773 171.368 16.0781C170.932 16.3745 170.714 16.8061 170.714 17.3728Z" fill="black"/>
<path d="M154.878 13.1357V21.5837H150.824V6.96325H154.813V9.56563H154.956C155.288 8.71125 155.815 8.03558 156.539 7.53865C157.262 7.03299 158.165 6.78016 159.246 6.78016C160.771 6.78016 161.992 7.27274 162.907 8.2579C163.831 9.23434 164.294 10.5769 164.294 12.2857V21.5837H160.24V13.005C160.24 12.107 160.009 11.4052 159.546 10.8995C159.093 10.3939 158.461 10.141 157.65 10.141C156.831 10.141 156.164 10.4069 155.649 10.9387C155.135 11.4618 154.878 12.1942 154.878 13.1357Z" fill="black"/>
<path d="M143.527 21.5837V6.96325H147.581V21.5837H143.527ZM145.554 5.09319C144.952 5.09319 144.433 4.89267 143.998 4.49164C143.57 4.0906 143.357 3.60674 143.357 3.04006C143.357 2.47338 143.57 1.99387 143.998 1.60156C144.433 1.20052 144.952 1 145.554 1C146.155 1 146.67 1.20052 147.097 1.60156C147.533 1.99387 147.751 2.47338 147.751 3.04006C147.751 3.60674 147.533 4.0906 147.097 4.49164C146.67 4.89267 146.155 5.09319 145.554 5.09319Z" fill="black"/>
<path d="M127.939 21.5837V2.09849H140.833V5.49859H132.045V10.8472H139.97V14.1819H132.045V21.5837H127.939Z" fill="black"/>
<path d="M125.219 6.96325V10.0233H122.446V17.0851C122.446 18.0354 122.908 18.5105 123.832 18.5105C123.989 18.5105 124.159 18.4974 124.342 18.4713C124.534 18.4451 124.7 18.4146 124.839 18.3797L125.48 21.4137C124.617 21.6665 123.78 21.7929 122.969 21.7929C121.522 21.7929 120.397 21.4267 119.595 20.6944C118.802 19.9621 118.405 18.9377 118.405 17.6212V10.0233H116.418V6.96325H118.405V3.48469H122.446V6.96325H125.219Z" fill="black"/>
<path d="M106.492 21.5837V6.96325H110.415V9.5264H110.572C110.834 8.6197 111.278 7.93533 111.906 7.47326C112.534 7.00248 113.257 6.76709 114.077 6.76709C114.277 6.76709 114.495 6.78016 114.731 6.80632C114.966 6.83247 115.171 6.86735 115.345 6.91094V10.4941C115.153 10.4331 114.888 10.3851 114.548 10.3503C114.216 10.3067 113.911 10.2849 113.632 10.2849C112.743 10.2849 112.006 10.5682 111.422 11.1349C110.838 11.6929 110.546 12.4208 110.546 13.3188V21.5837H106.492Z" fill="black"/>
<path d="M95.0231 21.8583C93.6282 21.8583 92.4687 21.4965 91.5446 20.7729C90.6291 20.0405 90.1714 18.9508 90.1714 17.5035C90.1714 16.4138 90.4243 15.5594 90.9299 14.9404C91.4443 14.3127 92.12 13.855 92.9569 13.5673C93.7938 13.2709 94.6918 13.0791 95.6508 12.9919C96.9237 12.8698 97.8304 12.7434 98.3709 12.6126C98.9201 12.4731 99.1948 12.168 99.1948 11.6972V11.6318C99.1948 11.0303 99.003 10.5639 98.6194 10.2326C98.2358 9.90128 97.6822 9.73563 96.9586 9.73563C96.2349 9.73563 95.6421 9.89256 95.18 10.2064C94.7267 10.5203 94.4259 10.9213 94.2777 11.4095L90.5899 10.821C90.9386 9.54819 91.671 8.55868 92.7869 7.8525C93.9115 7.13761 95.3065 6.78016 96.9716 6.78016C98.0527 6.78016 99.0684 6.95017 100.019 7.29018C100.978 7.63019 101.754 8.16636 102.346 8.89869C102.939 9.6223 103.236 10.5639 103.236 11.7234V21.5837H99.404V19.5436H99.2863C98.9289 20.2323 98.3971 20.7903 97.6909 21.2175C96.9934 21.6447 96.1042 21.8583 95.0231 21.8583ZM94.0292 17.3728C94.0292 17.9307 94.2298 18.3536 94.6308 18.6413C95.0405 18.9203 95.5549 19.0597 96.1739 19.0597C97.0632 19.0597 97.7911 18.8026 98.3578 18.2882C98.9332 17.7738 99.2209 17.133 99.2209 16.3658V14.8096C99.064 14.9142 98.8155 15.0101 98.4755 15.0973C98.1442 15.1845 97.7911 15.2586 97.4163 15.3196C97.0414 15.3719 96.7057 15.4199 96.4093 15.4635C95.6944 15.5681 95.119 15.773 94.6831 16.0781C94.2472 16.3745 94.0292 16.8061 94.0292 17.3728Z" fill="black"/>
<path d="M66.3708 21.5837V6.96325H70.2155V9.56563H70.3986C70.7037 8.70253 71.2137 8.02251 71.9286 7.52557C72.6435 7.02863 73.4935 6.78016 74.4787 6.78016C75.4813 6.78016 76.3313 7.03299 77.0288 7.53865C77.7349 8.03558 78.2014 8.71125 78.428 9.56563H78.585C78.8901 8.71996 79.4306 8.0443 80.2065 7.53865C80.9912 7.03299 81.9197 6.78016 82.992 6.78016C84.352 6.78016 85.4593 7.21172 86.3136 8.07482C87.1767 8.93792 87.6083 10.1628 87.6083 11.7495V21.5837H83.5543V12.5603C83.5543 11.7408 83.3364 11.1305 82.9005 10.7295C82.4733 10.3285 81.9371 10.128 81.292 10.128C80.5596 10.128 79.9842 10.3633 79.5658 10.8341C79.156 11.2962 78.9511 11.9065 78.9511 12.6649V21.5837H75.0149V12.4557C75.0149 11.7495 74.81 11.1872 74.4002 10.7687C73.9992 10.3415 73.4674 10.128 72.8048 10.128C72.1248 10.128 71.5581 10.3764 71.1047 10.8734C70.6514 11.3616 70.4247 12.0111 70.4247 12.8219V21.5837H66.3708Z" fill="black"/>
<path d="M56.1182 21.8583C53.7555 21.8583 51.868 21.3178 50.4557 20.2367C49.0521 19.1556 48.3197 17.5646 48.2587 15.4635H52.2473C52.317 16.4399 52.7006 17.1766 53.3981 17.6736C54.1043 18.1618 54.9935 18.4059 56.0659 18.4059C57.112 18.4059 57.949 18.1836 58.5767 17.7389C59.2131 17.2943 59.5313 16.7146 59.5313 15.9997C59.5313 15.3458 59.2436 14.8445 58.6682 14.4958C58.0928 14.1383 57.2733 13.8332 56.2097 13.5804L54.0781 13.0573C52.4391 12.6649 51.1444 12.0416 50.1941 11.1872C49.2526 10.3241 48.7818 9.17331 48.7818 7.73481C48.7818 6.55785 49.1 5.5291 49.7364 4.64857C50.3729 3.75931 51.2447 3.07057 52.3519 2.58235C53.4678 2.08542 54.7363 1.83695 56.1574 1.83695C57.6046 1.83695 58.8688 2.08542 59.9498 2.58235C61.0309 3.07929 61.8722 3.76803 62.4737 4.64857C63.084 5.5291 63.3979 6.54477 63.4153 7.69558H59.4398C59.37 6.93709 59.0475 6.34425 58.4721 5.91706C57.8967 5.48987 57.1164 5.27628 56.1312 5.27628C55.1286 5.27628 54.3571 5.48551 53.8166 5.90399C53.276 6.31374 53.0058 6.83683 53.0058 7.47326C53.0058 8.162 53.3065 8.68509 53.9081 9.04254C54.5097 9.39126 55.2333 9.66589 56.0789 9.86641L57.8182 10.298C58.9516 10.5508 59.9585 10.9213 60.8391 11.4095C61.7196 11.889 62.4127 12.508 62.9184 13.2665C63.424 14.0163 63.6768 14.9317 63.6768 16.0127C63.6768 17.8 63.0099 19.221 61.676 20.2759C60.3421 21.3308 58.4895 21.8583 56.1182 21.8583Z" fill="black"/>
<path d="M222.291 21.8714C220.792 21.8714 219.502 21.5662 218.42 20.956C217.339 20.3457 216.507 19.4782 215.923 18.3536C215.339 17.2202 215.047 15.882 215.047 14.3388C215.047 12.8393 215.334 11.5229 215.91 10.3895C216.494 9.25613 217.313 8.37124 218.368 7.73481C219.423 7.09838 220.665 6.78016 222.095 6.78016C223.385 6.78016 224.549 7.05479 225.587 7.60403C226.633 8.15328 227.461 8.97715 228.072 10.0756C228.69 11.1741 229 12.5516 229 14.2081V15.3066H219.035C219.079 16.4138 219.401 17.2812 220.003 17.9089C220.604 18.5367 221.389 18.8505 222.357 18.8505C223.028 18.8505 223.603 18.7067 224.083 18.419C224.571 18.1313 224.92 17.7128 225.129 17.1635L228.869 17.412C228.582 18.7546 227.862 19.8357 226.711 20.6552C225.569 21.466 224.096 21.8714 222.291 21.8714ZM219.061 12.8088H225.116C225.02 11.8847 224.724 11.1523 224.227 10.6118C223.73 10.0713 223.032 9.80102 222.134 9.80102C221.228 9.80102 220.508 10.0844 219.977 10.651C219.454 11.209 219.148 11.9283 219.061 12.8088Z" stroke="black" stroke-width="0.8" stroke-miterlimit="10"/>
<path d="M206.481 21.8714C204.981 21.8714 203.695 21.5531 202.623 20.9167C201.551 20.2803 200.727 19.3954 200.151 18.262C199.585 17.1287 199.301 15.8209 199.301 14.3388C199.301 12.8393 199.589 11.5229 200.165 10.3895C200.749 9.25613 201.577 8.37124 202.649 7.73481C203.722 7.09838 204.994 6.78016 206.468 6.78016C207.741 6.78016 208.857 7.0112 209.816 7.47326C210.775 7.93533 211.533 8.58483 212.091 9.42178C212.649 10.2587 212.954 11.2439 213.006 12.3772H209.188C209.075 11.6536 208.791 11.0695 208.338 10.6249C207.885 10.1715 207.283 9.94487 206.533 9.94487C205.592 9.94487 204.838 10.3241 204.271 11.0826C203.704 11.8324 203.421 12.9003 203.421 14.2865C203.421 15.6814 203.7 16.7669 204.258 17.5428C204.824 18.3187 205.583 18.7067 206.533 18.7067C207.231 18.7067 207.819 18.4887 208.299 18.0528C208.778 17.6169 209.075 17.0066 209.188 16.222H213.006C212.945 17.3379 212.645 18.3231 212.104 19.1774C211.564 20.0231 210.814 20.6857 209.855 21.1652C208.905 21.636 207.78 21.8714 206.481 21.8714Z" stroke="black" stroke-width="0.8" stroke-miterlimit="10"/>
<path d="M187.231 13.1357V21.5837H183.177V6.96325H187.166V9.56563H187.31C187.641 8.71125 188.168 8.03558 188.892 7.53865C189.616 7.03299 190.518 6.78016 191.599 6.78016C193.125 6.78016 194.345 7.27274 195.261 8.2579C196.185 9.23434 196.647 10.5769 196.647 12.2857V21.5837H192.593V13.005C192.593 12.107 192.362 11.4052 191.9 10.8995C191.446 10.3939 190.814 10.141 190.004 10.141C189.184 10.141 188.517 10.4069 188.003 10.9387C187.488 11.4618 187.231 12.1942 187.231 13.1357Z" stroke="black" stroke-width="0.8" stroke-miterlimit="10"/>
<path d="M171.708 21.8583C170.313 21.8583 169.154 21.4965 168.23 20.7729C167.314 20.0405 166.857 18.9508 166.857 17.5035C166.857 16.4138 167.11 15.5594 167.615 14.9404C168.13 14.3127 168.805 13.855 169.642 13.5673C170.479 13.2709 171.377 13.0791 172.336 12.9919C173.609 12.8698 174.516 12.7434 175.056 12.6126C175.605 12.4731 175.88 12.168 175.88 11.6972V11.6318C175.88 11.0303 175.688 10.5639 175.305 10.2326C174.921 9.90128 174.367 9.73563 173.644 9.73563C172.92 9.73563 172.327 9.89256 171.865 10.2064C171.412 10.5203 171.111 10.9213 170.963 11.4095L167.275 10.821C167.624 9.54819 168.356 8.55868 169.472 7.8525C170.597 7.13761 171.992 6.78016 173.657 6.78016C174.738 6.78016 175.754 6.95017 176.704 7.29018C177.663 7.63019 178.439 8.16636 179.032 8.89869C179.624 9.6223 179.921 10.5639 179.921 11.7234V21.5837H176.089V19.5436H175.972C175.614 20.2323 175.082 20.7903 174.376 21.2175C173.679 21.6447 172.789 21.8583 171.708 21.8583ZM170.714 17.3728C170.714 17.9307 170.915 18.3536 171.316 18.6413C171.726 18.9203 172.24 19.0597 172.859 19.0597C173.748 19.0597 174.476 18.8026 175.043 18.2882C175.618 17.7738 175.906 17.133 175.906 16.3658V14.8096C175.749 14.9142 175.501 15.0101 175.161 15.0973C174.829 15.1845 174.476 15.2586 174.102 15.3196C173.727 15.3719 173.391 15.4199 173.095 15.4635C172.38 15.5681 171.804 15.773 171.368 16.0781C170.932 16.3745 170.714 16.8061 170.714 17.3728Z" stroke="black" stroke-width="0.8" stroke-miterlimit="10"/>
<path d="M154.878 13.1357V21.5837H150.824V6.96325H154.813V9.56563H154.956C155.288 8.71125 155.815 8.03558 156.539 7.53865C157.262 7.03299 158.165 6.78016 159.246 6.78016C160.771 6.78016 161.992 7.27274 162.907 8.2579C163.831 9.23434 164.294 10.5769 164.294 12.2857V21.5837H160.24V13.005C160.24 12.107 160.009 11.4052 159.546 10.8995C159.093 10.3939 158.461 10.141 157.65 10.141C156.831 10.141 156.164 10.4069 155.649 10.9387C155.135 11.4618 154.878 12.1942 154.878 13.1357Z" stroke="black" stroke-width="0.8" stroke-miterlimit="10"/>
<path d="M143.527 21.5837V6.96325H147.581V21.5837H143.527ZM145.554 5.09319C144.952 5.09319 144.433 4.89267 143.998 4.49164C143.57 4.0906 143.357 3.60674 143.357 3.04006C143.357 2.47338 143.57 1.99387 143.998 1.60156C144.433 1.20052 144.952 1 145.554 1C146.155 1 146.67 1.20052 147.097 1.60156C147.533 1.99387 147.751 2.47338 147.751 3.04006C147.751 3.60674 147.533 4.0906 147.097 4.49164C146.67 4.89267 146.155 5.09319 145.554 5.09319Z" stroke="black" stroke-width="0.8" stroke-miterlimit="10"/>
<path d="M127.939 21.5837V2.09849H140.833V5.49859H132.045V10.8472H139.97V14.1819H132.045V21.5837H127.939Z" stroke="black" stroke-width="0.8" stroke-miterlimit="10"/>
<path d="M125.219 6.96325V10.0233H122.446V17.0851C122.446 18.0354 122.908 18.5105 123.832 18.5105C123.989 18.5105 124.159 18.4974 124.342 18.4713C124.534 18.4451 124.7 18.4146 124.839 18.3797L125.48 21.4137C124.617 21.6665 123.78 21.7929 122.969 21.7929C121.522 21.7929 120.397 21.4267 119.595 20.6944C118.802 19.9621 118.405 18.9377 118.405 17.6212V10.0233H116.418V6.96325H118.405V3.48469H122.446V6.96325H125.219Z" stroke="black" stroke-width="0.8" stroke-miterlimit="10"/>
<path d="M106.492 21.5837V6.96325H110.415V9.5264H110.572C110.834 8.6197 111.278 7.93533 111.906 7.47326C112.534 7.00248 113.257 6.76709 114.077 6.76709C114.277 6.76709 114.495 6.78016 114.731 6.80632C114.966 6.83247 115.171 6.86735 115.345 6.91094V10.4941C115.153 10.4331 114.888 10.3851 114.548 10.3503C114.216 10.3067 113.911 10.2849 113.632 10.2849C112.743 10.2849 112.006 10.5682 111.422 11.1349C110.838 11.6929 110.546 12.4208 110.546 13.3188V21.5837H106.492Z" stroke="black" stroke-width="0.8" stroke-miterlimit="10"/>
<path d="M95.0231 21.8583C93.6282 21.8583 92.4687 21.4965 91.5446 20.7729C90.6291 20.0405 90.1714 18.9508 90.1714 17.5035C90.1714 16.4138 90.4243 15.5594 90.9299 14.9404C91.4443 14.3127 92.12 13.855 92.9569 13.5673C93.7938 13.2709 94.6918 13.0791 95.6508 12.9919C96.9237 12.8698 97.8304 12.7434 98.3709 12.6126C98.9201 12.4731 99.1948 12.168 99.1948 11.6972V11.6318C99.1948 11.0303 99.003 10.5639 98.6194 10.2326C98.2358 9.90128 97.6822 9.73563 96.9586 9.73563C96.2349 9.73563 95.6421 9.89256 95.18 10.2064C94.7267 10.5203 94.4259 10.9213 94.2777 11.4095L90.5899 10.821C90.9386 9.54819 91.671 8.55868 92.7869 7.8525C93.9115 7.13761 95.3065 6.78016 96.9716 6.78016C98.0527 6.78016 99.0684 6.95017 100.019 7.29018C100.978 7.63019 101.754 8.16636 102.346 8.89869C102.939 9.6223 103.236 10.5639 103.236 11.7234V21.5837H99.404V19.5436H99.2863C98.9289 20.2323 98.3971 20.7903 97.6909 21.2175C96.9934 21.6447 96.1042 21.8583 95.0231 21.8583ZM94.0292 17.3728C94.0292 17.9307 94.2298 18.3536 94.6308 18.6413C95.0405 18.9203 95.5549 19.0597 96.1739 19.0597C97.0632 19.0597 97.7911 18.8026 98.3578 18.2882C98.9332 17.7738 99.2209 17.133 99.2209 16.3658V14.8096C99.064 14.9142 98.8155 15.0101 98.4755 15.0973C98.1442 15.1845 97.7911 15.2586 97.4163 15.3196C97.0414 15.3719 96.7057 15.4199 96.4093 15.4635C95.6944 15.5681 95.119 15.773 94.6831 16.0781C94.2472 16.3745 94.0292 16.8061 94.0292 17.3728Z" stroke="black" stroke-width="0.8" stroke-miterlimit="10"/>
<path d="M66.3708 21.5837V6.96325H70.2155V9.56563H70.3986C70.7037 8.70253 71.2137 8.02251 71.9286 7.52557C72.6435 7.02863 73.4935 6.78016 74.4787 6.78016C75.4813 6.78016 76.3313 7.03299 77.0288 7.53865C77.7349 8.03558 78.2014 8.71125 78.428 9.56563H78.585C78.8901 8.71996 79.4306 8.0443 80.2065 7.53865C80.9912 7.03299 81.9197 6.78016 82.992 6.78016C84.352 6.78016 85.4593 7.21172 86.3136 8.07482C87.1767 8.93792 87.6083 10.1628 87.6083 11.7495V21.5837H83.5543V12.5603C83.5543 11.7408 83.3364 11.1305 82.9005 10.7295C82.4733 10.3285 81.9371 10.128 81.292 10.128C80.5596 10.128 79.9842 10.3633 79.5658 10.8341C79.156 11.2962 78.9511 11.9065 78.9511 12.6649V21.5837H75.0149V12.4557C75.0149 11.7495 74.81 11.1872 74.4002 10.7687C73.9992 10.3415 73.4674 10.128 72.8048 10.128C72.1248 10.128 71.5581 10.3764 71.1047 10.8734C70.6514 11.3616 70.4247 12.0111 70.4247 12.8219V21.5837H66.3708Z" stroke="black" stroke-width="0.8" stroke-miterlimit="10"/>
<path d="M56.1182 21.8583C53.7555 21.8583 51.868 21.3178 50.4557 20.2367C49.0521 19.1556 48.3197 17.5646 48.2587 15.4635H52.2473C52.317 16.4399 52.7006 17.1766 53.3981 17.6736C54.1043 18.1618 54.9935 18.4059 56.0659 18.4059C57.112 18.4059 57.949 18.1836 58.5767 17.7389C59.2131 17.2943 59.5313 16.7146 59.5313 15.9997C59.5313 15.3458 59.2436 14.8445 58.6682 14.4958C58.0928 14.1383 57.2733 13.8332 56.2097 13.5804L54.0781 13.0573C52.4391 12.6649 51.1444 12.0416 50.1941 11.1872C49.2526 10.3241 48.7818 9.17331 48.7818 7.73481C48.7818 6.55785 49.1 5.5291 49.7364 4.64857C50.3729 3.75931 51.2447 3.07057 52.3519 2.58235C53.4678 2.08542 54.7363 1.83695 56.1574 1.83695C57.6046 1.83695 58.8688 2.08542 59.9498 2.58235C61.0309 3.07929 61.8722 3.76803 62.4737 4.64857C63.084 5.5291 63.3979 6.54477 63.4153 7.69558H59.4398C59.37 6.93709 59.0475 6.34425 58.4721 5.91706C57.8967 5.48987 57.1164 5.27628 56.1312 5.27628C55.1286 5.27628 54.3571 5.48551 53.8166 5.90399C53.276 6.31374 53.0058 6.83683 53.0058 7.47326C53.0058 8.162 53.3065 8.68509 53.9081 9.04254C54.5097 9.39126 55.2333 9.66589 56.0789 9.86641L57.8182 10.298C58.9516 10.5508 59.9585 10.9213 60.8391 11.4095C61.7196 11.889 62.4127 12.508 62.9184 13.2665C63.424 14.0163 63.6768 14.9317 63.6768 16.0127C63.6768 17.8 63.0099 19.221 61.676 20.2759C60.3421 21.3308 58.4895 21.8583 56.1182 21.8583Z" stroke="black" stroke-width="0.8" stroke-miterlimit="10"/>
<path d="M30.0885 18.6302C33.5809 18.6302 36.4121 15.9555 36.4121 12.6562C36.4121 9.35687 33.5809 6.68229 30.0885 6.68229C26.5961 6.68229 23.7649 9.35687 23.7649 12.6562C23.7649 15.9555 26.5961 18.6302 30.0885 18.6302Z" stroke="black" stroke-width="0.8" stroke-miterlimit="10"/>
<path d="M29.0768 18.9649C33.1526 18.9649 36.4568 16.1405 36.4568 12.6562C36.4568 9.172 33.1526 6.34751 29.0768 6.34751C25.0009 6.34751 21.6967 9.172 21.6967 12.6562C21.6967 16.1405 25.0009 18.9649 29.0768 18.9649Z" stroke="black" stroke-width="0.8" stroke-miterlimit="10"/>
<path d="M28.0576 19.2998C32.7169 19.2998 36.494 16.3254 36.494 12.6563C36.494 8.9872 32.7169 6.01281 28.0576 6.01281C23.3982 6.01281 19.6212 8.9872 19.6212 12.6563C19.6212 16.3254 23.3982 19.2998 28.0576 19.2998Z" stroke="black" stroke-width="0.8" stroke-miterlimit="10"/>
<path d="M27.0458 19.6346C32.2886 19.6346 36.5386 16.5103 36.5386 12.6563C36.5386 8.80233 32.2886 5.67803 27.0458 5.67803C21.8031 5.67803 17.5529 8.80233 17.5529 12.6563C17.5529 16.5103 21.8031 19.6346 27.0458 19.6346Z" stroke="black" stroke-width="0.8" stroke-miterlimit="10"/>
<path d="M26.034 19.9692C31.8561 19.9692 36.5758 16.6951 36.5758 12.6562C36.5758 8.61731 31.8561 5.3431 26.034 5.3431C20.2119 5.3431 15.4922 8.61731 15.4922 12.6562C15.4922 16.6951 20.2119 19.9692 26.034 19.9692Z" stroke="black" stroke-width="0.8" stroke-miterlimit="10"/>
<path d="M25.0148 20.3041C31.4203 20.3041 36.613 16.88 36.613 12.6562C36.613 8.43244 31.4203 5.00839 25.0148 5.00839C18.6092 5.00839 13.4166 8.43244 13.4166 12.6562C13.4166 16.88 18.6092 20.3041 25.0148 20.3041Z" stroke="black" stroke-width="0.8" stroke-miterlimit="10"/>
<path d="M24.0031 20.6314C30.992 20.6314 36.6577 17.0608 36.6577 12.6562C36.6577 8.25166 30.992 4.68106 24.0031 4.68106C17.0141 4.68106 11.3484 8.25166 11.3484 12.6562C11.3484 17.0608 17.0141 20.6314 24.0031 20.6314Z" stroke="black" stroke-width="0.8" stroke-miterlimit="10"/>
<path d="M22.9838 20.9663C30.5562 20.9663 36.6948 17.2457 36.6948 12.6563C36.6948 8.06686 30.5562 4.34635 22.9838 4.34635C15.4114 4.34635 9.27274 8.06686 9.27274 12.6563C9.27274 17.2457 15.4114 20.9663 22.9838 20.9663Z" stroke="black" stroke-width="0.8" stroke-miterlimit="10"/>
<path d="M21.972 21.3009C30.1278 21.3009 36.7395 17.4305 36.7395 12.6562C36.7395 7.88176 30.1278 4.01142 21.972 4.01142C13.8161 4.01142 7.20454 7.88176 7.20454 12.6562C7.20454 17.4305 13.8161 21.3009 21.972 21.3009Z" stroke="black" stroke-width="0.8" stroke-miterlimit="10"/>
<path d="M20.9602 21.6357C29.6995 21.6357 36.7841 17.6154 36.7841 12.6562C36.7841 7.69697 29.6995 3.67664 20.9602 3.67664C12.2209 3.67664 5.13637 7.69697 5.13637 12.6562C5.13637 17.6154 12.2209 21.6357 20.9602 21.6357Z" stroke="black" stroke-width="0.8" stroke-miterlimit="10"/>
<path d="M19.941 21.9705C29.2637 21.9705 36.8213 17.8004 36.8213 12.6562C36.8213 7.51209 29.2637 3.34194 19.941 3.34194C10.6183 3.34194 3.06072 7.51209 3.06072 12.6562C3.06072 17.8004 10.6183 21.9705 19.941 21.9705Z" stroke="black" stroke-width="0.8" stroke-miterlimit="10"/>
<path d="M18.9292 22.3053C28.8313 22.3053 36.8585 17.9853 36.8585 12.6562C36.8585 7.32722 28.8313 3.00716 18.9292 3.00716C9.02723 3.00716 1 7.32722 1 12.6562C1 17.9853 9.02723 22.3053 18.9292 22.3053Z" stroke="black" stroke-width="0.8" stroke-miterlimit="10"/>
</svg>
